<svg version="1.2" xmlns="http://www.w3.org/2000/svg" viewBox="0 0 300 300" width="300" height="300">
	<title>New Project</title>
	<style>
		.s0 { fill: #272727 } 
		.s1 { fill: #000000 } 
	</style>
	<path id="Background" class="s0" d="m52 34c0-3.3 2.7-6 6-6h133c3.3 0 6 2.7 6 6v221c0 3.3-2.7 6-6 6h-133c-3.3 0-6-2.7-6-6z"/>
	<path id="Layer 1" class="s1" d="m148.7 27.2c1.1-3.1 4.6-4.7 7.7-3.6l124.9 45.6c3.2 1.1 4.8 4.6 3.6 7.7l-75.7 207.6c-1.1 3.1-4.5 4.7-7.7 3.6l-124.9-45.6c-3.1-1.1-4.7-4.5-3.6-7.6z"/>
</svg>